<svg xmlns="http://www.w3.org/2000/svg" viewBox="0 0 400 80" preserveAspectRatio="none">
<line x1="36.9" y1="11.0" x2="359.1" y2="11.0" stroke="#ffa63d" stroke-width="2.8" stroke-linecap="round" opacity="0.64"/>
<line x1="30.4" y1="12.8" x2="354.7" y2="12.8" stroke="#ff8c1a" stroke-width="2.7" stroke-linecap="round" opacity="0.68"/>
<line x1="29.4" y1="14.5" x2="377.0" y2="14.5" stroke="#ffa63d" stroke-width="2.6" stroke-linecap="round" opacity="0.72"/>
<line x1="35.1" y1="16.3" x2="373.3" y2="16.3" stroke="#f26b00" stroke-width="2.1" stroke-linecap="round" opacity="0.73"/>
<line x1="35.0" y1="18.0" x2="380.7" y2="18.0" stroke="#ff8c1a" stroke-width="2.9" stroke-linecap="round" opacity="0.75"/>
<line x1="37.0" y1="19.8" x2="383.9" y2="19.8" stroke="#ff8c1a" stroke-width="3.2" stroke-linecap="round" opacity="0.86"/>
<line x1="21.6" y1="21.5" x2="365.3" y2="21.5" stroke="#ff8c1a" stroke-width="2.9" stroke-linecap="round" opacity="0.79"/>
<line x1="32.8" y1="23.3" x2="380.6" y2="23.3" stroke="#f26b00" stroke-width="3.8" stroke-linecap="round" opacity="0.82"/>
<line x1="21.6" y1="25.1" x2="381.4" y2="25.1" stroke="#ff7a00" stroke-width="2.4" stroke-linecap="round" opacity="0.84"/>
<line x1="27.1" y1="26.8" x2="376.0" y2="26.8" stroke="#ff9a2e" stroke-width="3.3" stroke-linecap="round" opacity="0.82"/>
<line x1="20.2" y1="28.6" x2="380.4" y2="28.6" stroke="#ff8c1a" stroke-width="3.5" stroke-linecap="round" opacity="0.89"/>
<line x1="23.3" y1="30.3" x2="383.4" y2="30.3" stroke="#ff7a00" stroke-width="4.2" stroke-linecap="round" opacity="0.96"/>
<line x1="19.2" y1="32.1" x2="380.4" y2="32.1" stroke="#f26b00" stroke-width="3.4" stroke-linecap="round" opacity="0.89"/>
<line x1="20.4" y1="33.8" x2="383.9" y2="33.8" stroke="#ff8c1a" stroke-width="2.5" stroke-linecap="round" opacity="0.93"/>
<line x1="22.2" y1="35.6" x2="383.2" y2="35.6" stroke="#f26b00" stroke-width="2.9" stroke-linecap="round" opacity="0.90"/>
<line x1="18.0" y1="37.4" x2="381.1" y2="37.4" stroke="#ff7a00" stroke-width="4.1" stroke-linecap="round" opacity="0.94"/>
<line x1="19.9" y1="39.1" x2="382.2" y2="39.1" stroke="#f26b00" stroke-width="3.2" stroke-linecap="round" opacity="0.99"/>
<line x1="16.5" y1="40.9" x2="382.3" y2="40.9" stroke="#ff8c1a" stroke-width="3.9" stroke-linecap="round" opacity="0.90"/>
<line x1="21.2" y1="42.6" x2="381.0" y2="42.6" stroke="#ff9a2e" stroke-width="3.1" stroke-linecap="round" opacity="0.89"/>
<line x1="21.2" y1="44.4" x2="379.9" y2="44.4" stroke="#ff9a2e" stroke-width="3.9" stroke-linecap="round" opacity="0.99"/>
<line x1="17.2" y1="46.2" x2="383.6" y2="46.2" stroke="#ffa63d" stroke-width="4.4" stroke-linecap="round" opacity="0.98"/>
<line x1="16.3" y1="47.9" x2="377.4" y2="47.9" stroke="#ff9a2e" stroke-width="3.0" stroke-linecap="round" opacity="0.90"/>
<line x1="20.4" y1="49.7" x2="383.4" y2="49.7" stroke="#ff7a00" stroke-width="4.1" stroke-linecap="round" opacity="0.94"/>
<line x1="20.0" y1="51.4" x2="381.5" y2="51.4" stroke="#ffa63d" stroke-width="4.1" stroke-linecap="round" opacity="0.95"/>
<line x1="24.6" y1="53.2" x2="373.3" y2="53.2" stroke="#f26b00" stroke-width="2.4" stroke-linecap="round" opacity="0.86"/>
<line x1="16.9" y1="54.9" x2="377.5" y2="54.9" stroke="#ffa63d" stroke-width="2.4" stroke-linecap="round" opacity="0.91"/>
<line x1="33.0" y1="56.7" x2="376.1" y2="56.7" stroke="#ff9a2e" stroke-width="2.9" stroke-linecap="round" opacity="0.85"/>
<line x1="21.7" y1="58.5" x2="376.2" y2="58.5" stroke="#f26b00" stroke-width="2.2" stroke-linecap="round" opacity="0.87"/>
<line x1="27.5" y1="60.2" x2="380.1" y2="60.2" stroke="#ff9a2e" stroke-width="3.5" stroke-linecap="round" opacity="0.77"/>
<line x1="27.7" y1="62.0" x2="371.7" y2="62.0" stroke="#ffa63d" stroke-width="2.8" stroke-linecap="round" opacity="0.77"/>
<line x1="36.5" y1="63.7" x2="363.8" y2="63.7" stroke="#ff7a00" stroke-width="2.9" stroke-linecap="round" opacity="0.80"/>
<line x1="26.4" y1="65.5" x2="363.9" y2="65.5" stroke="#f26b00" stroke-width="2.2" stroke-linecap="round" opacity="0.72"/>
<line x1="46.4" y1="67.2" x2="361.8" y2="67.2" stroke="#ff9a2e" stroke-width="3.1" stroke-linecap="round" opacity="0.74"/>
<line x1="35.5" y1="69.0" x2="383.6" y2="69.0" stroke="#ff9a2e" stroke-width="2.5" stroke-linecap="round" opacity="0.67"/>
<line x1="29.1" y1="42.1" x2="364.5" y2="30.1" stroke="#f26b00" stroke-width="3.2" stroke-linecap="round" opacity="0.69"/>
<line x1="29.8" y1="44.1" x2="390.1" y2="31.2" stroke="#f26b00" stroke-width="3.7" stroke-linecap="round" opacity="0.86"/>
<line x1="13.7" y1="46.7" x2="394.8" y2="33.0" stroke="#ff7a00" stroke-width="3.2" stroke-linecap="round" opacity="0.92"/>
<line x1="15.0" y1="48.6" x2="388.2" y2="35.3" stroke="#f26b00" stroke-width="3.9" stroke-linecap="round" opacity="0.98"/>
<line x1="23.9" y1="50.3" x2="377.5" y2="37.7" stroke="#ff7a00" stroke-width="2.4" stroke-linecap="round" opacity="0.89"/>
<line x1="7.7" y1="52.9" x2="394.2" y2="39.1" stroke="#ffa63d" stroke-width="3.2" stroke-linecap="round" opacity="0.64"/>
</svg>