<svg xmlns="http://www.w3.org/2000/svg" viewBox="0 0 320 170" preserveAspectRatio="xMidYMid meet">
<line x1="18.9" y1="105.8" x2="246.1" y2="12.5" stroke="#ffa63d" stroke-width="2.4" stroke-linecap="round" opacity="0.69"/>
<line x1="45.3" y1="96.9" x2="244.5" y2="15.0" stroke="#f26b00" stroke-width="3.3" stroke-linecap="round" opacity="0.69"/>
<line x1="17.7" y1="110.0" x2="219.2" y2="27.3" stroke="#ffa63d" stroke-width="2.7" stroke-linecap="round" opacity="0.73"/>
<line x1="45.3" y1="100.6" x2="282.7" y2="3.0" stroke="#ffa63d" stroke-width="3.0" stroke-linecap="round" opacity="0.74"/>
<line x1="2.8" y1="119.9" x2="243.4" y2="21.0" stroke="#ffa63d" stroke-width="2.2" stroke-linecap="round" opacity="0.71"/>
<line x1="49.7" y1="102.5" x2="244.6" y2="22.4" stroke="#ffa63d" stroke-width="2.5" stroke-linecap="round" opacity="0.81"/>
<line x1="52.7" y1="103.2" x2="254.8" y2="20.1" stroke="#f26b00" stroke-width="3.8" stroke-linecap="round" opacity="0.83"/>
<line x1="34.0" y1="112.7" x2="245.2" y2="25.9" stroke="#ff9a2e" stroke-width="2.3" stroke-linecap="round" opacity="0.76"/>
<line x1="11.1" y1="124.0" x2="285.9" y2="11.1" stroke="#f26b00" stroke-width="4.0" stroke-linecap="round" opacity="0.87"/>
<line x1="43.5" y1="112.6" x2="278.2" y2="16.1" stroke="#ffa63d" stroke-width="3.8" stroke-linecap="round" opacity="0.82"/>
<line x1="29.9" y1="120.0" x2="273.7" y2="19.9" stroke="#ff7a00" stroke-width="4.0" stroke-linecap="round" opacity="0.90"/>
<line x1="43.9" y1="116.2" x2="273.1" y2="22.0" stroke="#ff9a2e" stroke-width="2.6" stroke-linecap="round" opacity="0.93"/>
<line x1="38.3" y1="120.3" x2="279.5" y2="21.2" stroke="#ff8c1a" stroke-width="3.8" stroke-linecap="round" opacity="0.89"/>
<line x1="38.7" y1="122.0" x2="291.4" y2="18.2" stroke="#f26b00" stroke-width="2.6" stroke-linecap="round" opacity="0.93"/>
<line x1="36.4" y1="124.8" x2="297.9" y2="17.4" stroke="#f26b00" stroke-width="4.1" stroke-linecap="round" opacity="0.95"/>
<line x1="9.6" y1="137.8" x2="290.2" y2="22.5" stroke="#ff7a00" stroke-width="3.3" stroke-linecap="round" opacity="0.83"/>
<line x1="23.8" y1="133.8" x2="300.7" y2="20.0" stroke="#ff9a2e" stroke-width="4.1" stroke-linecap="round" opacity="0.91"/>
<line x1="29.2" y1="133.4" x2="296.7" y2="23.5" stroke="#ff7a00" stroke-width="3.0" stroke-linecap="round" opacity="0.88"/>
<line x1="12.4" y1="142.2" x2="292.1" y2="27.3" stroke="#ff8c1a" stroke-width="2.6" stroke-linecap="round" opacity="0.99"/>
<line x1="16.4" y1="142.4" x2="299.4" y2="26.1" stroke="#ff9a2e" stroke-width="4.2" stroke-linecap="round" opacity="0.89"/>
<line x1="26.2" y1="140.3" x2="291.4" y2="31.3" stroke="#f26b00" stroke-width="3.5" stroke-linecap="round" opacity="0.98"/>
<line x1="18.1" y1="145.5" x2="293.7" y2="32.2" stroke="#ff7a00" stroke-width="4.3" stroke-linecap="round" opacity="0.94"/>
<line x1="25.0" y1="144.5" x2="299.5" y2="31.7" stroke="#ff8c1a" stroke-width="3.8" stroke-linecap="round" opacity="0.99"/>
<line x1="19.6" y1="148.6" x2="303.2" y2="32.1" stroke="#ff9a2e" stroke-width="3.5" stroke-linecap="round" opacity="0.85"/>
<line x1="20.4" y1="150.2" x2="299.4" y2="35.5" stroke="#ffa63d" stroke-width="2.7" stroke-linecap="round" opacity="0.94"/>
<line x1="17.6" y1="153.2" x2="298.5" y2="37.8" stroke="#ff9a2e" stroke-width="3.4" stroke-linecap="round" opacity="0.95"/>
<line x1="22.0" y1="153.3" x2="296.9" y2="40.3" stroke="#ff7a00" stroke-width="4.3" stroke-linecap="round" opacity="0.93"/>
<line x1="34.3" y1="150.1" x2="308.6" y2="37.4" stroke="#f26b00" stroke-width="3.4" stroke-linecap="round" opacity="0.89"/>
<line x1="29.9" y1="153.8" x2="306.0" y2="40.3" stroke="#ff9a2e" stroke-width="2.9" stroke-linecap="round" opacity="0.96"/>
<line x1="24.3" y1="157.9" x2="292.3" y2="47.8" stroke="#ff7a00" stroke-width="2.7" stroke-linecap="round" opacity="0.97"/>
<line x1="36.4" y1="154.9" x2="307.6" y2="43.4" stroke="#ff9a2e" stroke-width="3.5" stroke-linecap="round" opacity="0.86"/>
<line x1="24.9" y1="161.4" x2="299.3" y2="48.7" stroke="#ff7a00" stroke-width="3.9" stroke-linecap="round" opacity="0.91"/>
<line x1="50.0" y1="153.0" x2="291.1" y2="53.9" stroke="#ff8c1a" stroke-width="2.8" stroke-linecap="round" opacity="0.82"/>
<line x1="46.5" y1="156.3" x2="305.4" y2="49.9" stroke="#ff9a2e" stroke-width="3.5" stroke-linecap="round" opacity="0.84"/>
<line x1="26.1" y1="166.6" x2="293.6" y2="56.7" stroke="#ffa63d" stroke-width="2.6" stroke-linecap="round" opacity="0.82"/>
<line x1="33.7" y1="165.3" x2="280.9" y2="63.7" stroke="#ffa63d" stroke-width="3.5" stroke-linecap="round" opacity="0.83"/>
<line x1="28.7" y1="169.3" x2="301.8" y2="57.0" stroke="#ff9a2e" stroke-width="3.7" stroke-linecap="round" opacity="0.84"/>
<line x1="54.4" y1="160.6" x2="301.4" y2="59.0" stroke="#ff7a00" stroke-width="3.2" stroke-linecap="round" opacity="0.89"/>
<line x1="32.4" y1="171.5" x2="316.0" y2="55.0" stroke="#ffa63d" stroke-width="3.9" stroke-linecap="round" opacity="0.88"/>
<line x1="49.4" y1="166.4" x2="263.2" y2="78.5" stroke="#ff8c1a" stroke-width="3.8" stroke-linecap="round" opacity="0.74"/>
<line x1="53.2" y1="166.7" x2="271.9" y2="76.8" stroke="#ff9a2e" stroke-width="3.4" stroke-linecap="round" opacity="0.79"/>
<line x1="83.8" y1="156.0" x2="262.4" y2="82.6" stroke="#ff9a2e" stroke-width="3.5" stroke-linecap="round" opacity="0.72"/>
<line x1="43.8" y1="174.3" x2="316.4" y2="62.3" stroke="#ffa63d" stroke-width="3.3" stroke-linecap="round" opacity="0.80"/>
<line x1="93.5" y1="155.7" x2="253.3" y2="90.1" stroke="#ff7a00" stroke-width="2.8" stroke-linecap="round" opacity="0.73"/>
<line x1="37.6" y1="180.6" x2="280.8" y2="80.6" stroke="#ff7a00" stroke-width="2.2" stroke-linecap="round" opacity="0.72"/>
<line x1="63.1" y1="172.0" x2="243.0" y2="98.1" stroke="#ff9a2e" stroke-width="2.8" stroke-linecap="round" opacity="0.65"/>
<line x1="97.8" y1="140.1" x2="226.4" y2="72.1" stroke="#ff7a00" stroke-width="2.2" stroke-linecap="round" opacity="0.68"/>
<line x1="93.6" y1="144.6" x2="222.5" y2="76.4" stroke="#ffa63d" stroke-width="2.7" stroke-linecap="round" opacity="0.80"/>
<line x1="97.6" y1="144.8" x2="241.9" y2="68.4" stroke="#f26b00" stroke-width="4.3" stroke-linecap="round" opacity="0.79"/>
<line x1="82.4" y1="155.1" x2="245.4" y2="68.8" stroke="#ffa63d" stroke-width="3.6" stroke-linecap="round" opacity="0.82"/>
<line x1="87.6" y1="154.6" x2="238.2" y2="74.8" stroke="#ff9a2e" stroke-width="4.9" stroke-linecap="round" opacity="0.86"/>
<line x1="81.4" y1="160.1" x2="243.0" y2="74.6" stroke="#ff9a2e" stroke-width="5.2" stroke-linecap="round" opacity="0.98"/>
<line x1="83.7" y1="161.2" x2="247.7" y2="74.4" stroke="#ff7a00" stroke-width="3.0" stroke-linecap="round" opacity="0.98"/>
<line x1="82.1" y1="164.3" x2="246.4" y2="77.3" stroke="#ff7a00" stroke-width="3.9" stroke-linecap="round" opacity="0.87"/>
<line x1="97.1" y1="158.6" x2="235.3" y2="85.5" stroke="#ff7a00" stroke-width="4.7" stroke-linecap="round" opacity="0.82"/>
<line x1="99.8" y1="159.4" x2="227.7" y2="91.7" stroke="#ff7a00" stroke-width="2.7" stroke-linecap="round" opacity="0.88"/>
<line x1="89.3" y1="167.2" x2="218.9" y2="98.6" stroke="#ffa63d" stroke-width="3.1" stroke-linecap="round" opacity="0.77"/>
<line x1="130.7" y1="147.6" x2="234.4" y2="92.7" stroke="#ff7a00" stroke-width="2.6" stroke-linecap="round" opacity="0.72"/>
</svg>